<svg width="24" height="24" viewBox="0 0 24 24" fill="none"
    xmlns="http://www.w3.org/2000/svg">
    <mask id="mask0_563_7477" style="mask-type:alpha" maskUnits="userSpaceOnUse" x="0" y="0" width="24" height="24">
        <path d="M0.359048 9.09714C1.96192 2.6685 8.47382 -1.24384 14.9039 0.359262C21.3314 1.96195 25.2441 8.47352 23.6406 14.9016C22.0384 21.331 15.5265 25.2436 9.09838 23.6409C2.66873 22.0382 -1.24382 15.526 0.359224 9.09702L0.359105 9.09714L0.359048 9.09714Z" fill="#79C62B"/>
    </mask>
    <g mask="url(#mask0_563_7477)">
        <path d="M0.359048 9.09714C1.96192 2.6685 8.47382 -1.24384 14.9039 0.359262C21.3314 1.96195 25.2441 8.47352 23.6406 14.9016C22.0384 21.331 15.5265 25.2436 9.09838 23.6409C2.66873 22.0382 -1.24382 15.526 0.359224 9.09702L0.359105 9.09714L0.359048 9.09714Z" fill="#012A36"/>
        <path d="M-9.24056 2.49704C-7.63769 -3.93159 -1.12579 -7.84393 5.30433 -6.24084C11.7318 -4.63815 15.6445 1.87342 14.041 8.30153C12.4388 14.7309 5.9269 18.6435 -0.501226 17.0408C-6.93088 15.4381 -10.8434 8.92585 -9.24039 2.49692L-9.2405 2.49704L-9.24056 2.49704Z" fill="#748094"/>
        <path d="M9.95866 4.29734C11.5615 -2.1313 18.0734 -6.04364 24.5036 -4.44054C30.931 -2.83786 34.8438 3.67372 33.2402 10.1018C31.638 16.5312 25.1261 20.4438 18.698 18.8411C12.2683 17.2384 8.35579 10.7261 9.95883 4.29722L9.95871 4.29734L9.95866 4.29734Z" fill="#FF495C"/>
    </g>
</svg>
