<svg width="24" height="24" viewBox="0 0 24 24" fill="none"
    xmlns="http://www.w3.org/2000/svg">
    <mask id="mask0_563_7462" style="mask-type:alpha" maskUnits="userSpaceOnUse" x="0" y="0" width="24" height="24">
        <path d="M23.641 14.9029C22.0381 21.3315 15.5262 25.2438 9.09606 23.6407C2.66863 22.0381 -1.24415 15.5265 0.359423 9.09837C1.96159 2.66903 8.47349 -1.24361 14.9016 0.359081C21.3313 1.96177 25.2438 8.47405 23.6408 14.903L23.6409 14.9029H23.641Z" fill="#79C62B"/>
    </mask>
    <g mask="url(#mask0_563_7462)">
        <path d="M23.641 14.9029C22.0381 21.3315 15.5262 25.2438 9.09606 23.6407C2.66863 22.0381 -1.24415 15.5265 0.359423 9.09837C1.96159 2.66903 8.47349 -1.24361 14.9016 0.359081C21.3313 1.96177 25.2438 8.47405 23.6408 14.903L23.6409 14.9029H23.641Z" fill="#79C62B"/>
        <path d="M33.2425 21.503C31.6396 27.9316 25.1277 31.8439 18.6976 30.2408C12.2702 28.6381 8.35741 22.1266 9.96099 15.6985C11.5631 9.26913 18.075 5.35649 24.5032 6.95918C30.9328 8.56187 34.8454 15.0741 33.2423 21.5031L33.2425 21.503H33.2425Z" fill="#CDD5DF"/>
        <path d="M14.0394 19.7027C12.4365 26.1313 5.92462 30.0436 -0.505502 28.4405C-6.93293 26.8379 -10.8457 20.3263 -9.24214 13.8982C-7.63998 7.46883 -1.12808 3.5562 5.30005 5.15889C11.7297 6.76157 15.6423 13.2739 14.0392 19.7028L14.0393 19.7027H14.0394Z" fill="#012A36"/>
    </g>
</svg>
